<svg viewBox="0 0 560 486" fill="none" xmlns="http://www.w3.org/2000/svg">
<path opacity="0.2" fill-rule="evenodd" clip-rule="evenodd" d="M280.167 482.334L555.708 5.08362L4.62618 5.08367L280.167 482.334ZM280.167 480.334L553.976 6.08362L6.35823 6.08367L280.167 480.334Z" fill="white"/>
<path d="M10 5C10 7.76142 7.76142 10 5 10C2.23858 10 0 7.76142 0 5C0 2.23858 2.23858 0 5 0C7.76142 0 10 2.23858 10 5Z" fill="white"/>
<path d="M285 481C285 483.761 282.761 486 280 486C277.239 486 275 483.761 275 481C275 478.239 277.239 476 280 476C282.761 476 285 478.239 285 481Z" fill="white"/>
<path d="M560 5C560 7.76142 557.761 10 555 10C552.239 10 550 7.76142 550 5C550 2.23858 552.239 0 555 0C557.761 0 560 2.23858 560 5Z" fill="white"/>
</svg>
